# xmcd CD database file
#
# Track frame offsets:
#	150
#	18630
#	26503
#
# Disc length: 578 seconds
#
# Revision: 0
# Processed by: cddbd v1.5.1PL0 Copyright (c) Steve Scherf et al.
# Submitted via: CDex 1.51
#
DISCID=1b024003
DTITLE=雅 -miyavi- - ジングルベル(仮）
DYEAR=2002
DGENRE=Rock
TTITLE0=ジングルベル(仮）
TTITLE1=はっぴぃえんどの唄
TTITLE2=あしタ、天気ニなぁレ。
EXTD=YEAR: 2002
EXTT0=
EXTT1=
EXTT2=
PLAYORDER=
